<svg width="68" height="32" viewBox="0 0 68 32" fill="none" xmlns="http://www.w3.org/2000/svg">
<rect width="68" height="32" rx="16" fill="#F3F4F6"/>
<path d="M13.25 10.75H10.3333C10.0112 10.75 9.75 11.0112 9.75 11.3333V20.6667C9.75 20.9888 10.0112 21.25 10.3333 21.25H13.25C13.5722 21.25 13.8333 20.9888 13.8333 20.6667V11.3333C13.8333 11.0112 13.5722 10.75 13.25 10.75Z" stroke="#6B7280" stroke-linecap="round" stroke-linejoin="round"/>
<path d="M19.6667 10.75H16.75C16.4278 10.75 16.1667 11.0112 16.1667 11.3333V14.25C16.1667 14.5722 16.4278 14.8333 16.75 14.8333H19.6667C19.9888 14.8333 20.25 14.5722 20.25 14.25V11.3333C20.25 11.0112 19.9888 10.75 19.6667 10.75Z" stroke="#6B7280" stroke-linecap="round" stroke-linejoin="round"/>
<path d="M19.6667 17.1667H16.75C16.4278 17.1667 16.1667 17.4278 16.1667 17.75V20.6667C16.1667 20.9888 16.4278 21.25 16.75 21.25H19.6667C19.9888 21.25 20.25 20.9888 20.25 20.6667V17.75C20.25 17.4278 19.9888 17.1667 19.6667 17.1667Z" stroke="#6B7280" stroke-linecap="round" stroke-linejoin="round"/>
<path d="M26.348 17.824L26.936 17.2C27.404 17.824 28.22 18.256 29.168 18.256C30.332 18.256 31.04 17.68 31.04 16.756C31.04 15.76 30.224 15.34 29.048 15.34C28.712 15.34 28.34 15.34 28.22 15.352V14.44C28.352 14.452 28.724 14.452 29.048 14.452C30.056 14.452 30.908 14.056 30.908 13.132C30.908 12.244 30.092 11.764 29.12 11.764C28.244 11.764 27.596 12.1 27.008 12.736L26.456 12.112C27.032 11.416 27.956 10.876 29.192 10.876C30.728 10.876 31.904 11.656 31.904 13.012C31.904 14.164 30.932 14.74 30.176 14.872C30.908 14.932 32.024 15.556 32.024 16.84C32.024 18.172 30.956 19.144 29.192 19.144C27.836 19.144 26.84 18.544 26.348 17.824ZM36.7094 19V10.996H40.2734C41.6654 10.996 42.5174 11.836 42.5174 13.036C42.5174 14.044 41.8454 14.716 41.1134 14.872C41.9654 15.004 42.6734 15.88 42.6734 16.84C42.6734 18.124 41.8214 19 40.3574 19H36.7094ZM37.7054 14.464H40.1054C41.0054 14.464 41.4854 13.912 41.4854 13.18C41.4854 12.46 41.0054 11.884 40.1054 11.884H37.7054V14.464ZM37.7054 18.112H40.1534C41.0894 18.112 41.6414 17.584 41.6414 16.732C41.6414 16 41.1374 15.352 40.1534 15.352H37.7054V18.112ZM49.9323 19V15.328H45.2523V19H44.2563V10.996H45.2523V14.44H49.9323V10.996H50.9283V19H49.9323ZM57.6353 19L54.5993 15.4L53.7953 16.312V19H52.7993V10.996H53.7953V15.136L57.3353 10.996H58.5833L55.2473 14.8L58.8713 19H57.6353Z" fill="#6B7280"/>
</svg>
