<svg width="84" height="22" viewBox="0 0 84 22" fill="none" xmlns="http://www.w3.org/2000/svg">
<rect width="84" height="22" rx="4" fill="#FFE34F" fill-opacity="0.2"/>
<path d="M18 8L12.5 13.5L10 11" stroke="#FF9500" stroke-width="1.5" stroke-linecap="round" stroke-linejoin="round"/>
<path d="M25.036 15V5.662H28.97C30.888 5.662 31.952 6.978 31.952 8.532C31.952 10.086 30.874 11.402 28.97 11.402H26.436V15H25.036ZM30.51 8.532C30.51 7.552 29.796 6.894 28.788 6.894H26.436V10.17H28.788C29.796 10.17 30.51 9.512 30.51 8.532ZM32.7501 11.612C32.7501 9.652 34.1641 8.07 36.1381 8.07C38.1681 8.07 39.4281 9.652 39.4281 11.724V12.032H34.0801C34.1781 13.18 35.0181 14.132 36.3761 14.132C37.0901 14.132 37.8741 13.852 38.3781 13.334L38.9661 14.16C38.2941 14.818 37.3421 15.168 36.2501 15.168C34.2341 15.168 32.7501 13.74 32.7501 11.612ZM36.1381 9.106C34.7801 9.106 34.1361 10.198 34.0661 11.122H38.1961C38.1681 10.226 37.5661 9.106 36.1381 9.106ZM45.5681 15V10.674C45.5681 9.554 44.9941 9.19 44.1261 9.19C43.3421 9.19 42.6281 9.666 42.2641 10.17V15H41.0041V8.238H42.2641V9.19C42.7121 8.644 43.6081 8.07 44.6581 8.07C46.0861 8.07 46.8281 8.826 46.8281 10.254V15H45.5681ZM53.6404 15V14.034C53.1364 14.706 52.3244 15.168 51.4284 15.168C49.6644 15.168 48.4044 13.838 48.4044 11.626C48.4044 9.456 49.6644 8.07 51.4284 8.07C52.2964 8.07 53.0944 8.49 53.6404 9.218V5.662H54.9004V15H53.6404ZM53.6404 13.068V10.184C53.2904 9.638 52.5344 9.19 51.7644 9.19C50.5044 9.19 49.7204 10.212 49.7204 11.626C49.7204 13.026 50.5044 14.048 51.7644 14.048C52.5344 14.048 53.2904 13.614 53.6404 13.068ZM57.5342 7.104C57.1002 7.104 56.7222 6.754 56.7222 6.306C56.7222 5.858 57.1002 5.494 57.5342 5.494C57.9822 5.494 58.3462 5.858 58.3462 6.306C58.3462 6.754 57.9822 7.104 57.5342 7.104ZM56.9182 15V8.238H58.1782V15H56.9182ZM64.7497 15V10.674C64.7497 9.554 64.1757 9.19 63.3077 9.19C62.5237 9.19 61.8097 9.666 61.4457 10.17V15H60.1857V8.238H61.4457V9.19C61.8937 8.644 62.7897 8.07 63.8397 8.07C65.2677 8.07 66.0097 8.826 66.0097 10.254V15H64.7497ZM67.95 16.736L68.552 15.812C69.112 16.456 69.798 16.708 70.722 16.708C71.772 16.708 72.822 16.204 72.822 14.776V13.894C72.304 14.566 71.506 15.056 70.596 15.056C68.846 15.056 67.586 13.768 67.586 11.556C67.586 9.386 68.846 8.07 70.596 8.07C71.478 8.07 72.276 8.49 72.822 9.218V8.238H74.082V14.734C74.082 17.058 72.388 17.744 70.722 17.744C69.588 17.744 68.762 17.506 67.95 16.736ZM72.822 12.928V10.184C72.472 9.638 71.702 9.19 70.946 9.19C69.686 9.19 68.902 10.17 68.902 11.556C68.902 12.956 69.686 13.936 70.946 13.936C71.702 13.936 72.472 13.474 72.822 12.928Z" fill="#FF9500"/>
</svg>
