<svg width="129" height="32" viewBox="0 0 129 32" fill="none" xmlns="http://www.w3.org/2000/svg">
<rect width="129" height="32" rx="4" fill="#F3F4F6"/>
<g clip-path="url(#clip0_793_10962)">
<path d="M9.33301 15.9987C9.33301 14.132 10.7997 12.6654 12.6663 12.6654C14.533 12.6654 15.9997 14.132 15.9997 15.9987M9.33301 15.9987C9.33301 19.6806 12.3178 22.6654 15.9997 22.6654C19.6816 22.6654 22.6663 19.6806 22.6663 15.9987M9.33301 15.9987C9.33301 12.3168 12.3178 9.33203 15.9997 9.33203C19.6816 9.33203 22.6663 12.3168 22.6663 15.9987M15.9997 15.9987C15.9997 17.8654 17.4663 19.332 19.333 19.332C21.1997 19.332 22.6663 17.8654 22.6663 15.9987M15.9997 15.9987C15.2305 15.5567 14.3173 15.4383 13.4609 15.6696C12.6045 15.9009 11.875 16.4629 11.433 17.232C10.991 18.0012 10.8726 18.9144 11.1039 19.7708C11.3352 20.6272 11.8972 21.3567 12.6663 21.7987M15.9997 15.9987C16.3761 16.2176 16.792 16.3601 17.2236 16.4183C17.6551 16.4764 18.0939 16.449 18.5149 16.3376C18.9358 16.2262 19.3307 16.0329 19.677 15.7689C20.0233 15.5048 20.3141 15.1752 20.533 14.7987C20.7519 14.4222 20.8945 14.0064 20.9526 13.5748C21.0107 13.1432 20.9833 12.7045 20.8719 12.2835C20.7605 11.8625 20.5672 11.4677 20.3032 11.1214C20.0391 10.7751 19.7095 10.4842 19.333 10.2654M12.6663 10.1987C13.4266 9.75667 14.3314 9.63477 15.1815 9.85981C16.0317 10.0849 16.7576 10.6384 17.1997 11.3987C17.6417 12.159 17.7636 13.0637 17.5386 13.9139C17.3135 14.7641 16.76 15.49 15.9997 15.932C15.2394 16.3741 14.6858 17.1 14.4608 17.9502C14.2357 18.8003 14.3576 19.7051 14.7997 20.4654C15.2417 21.2257 15.9676 21.7792 16.8178 22.0042C17.668 22.2293 18.5727 22.1074 19.333 21.6654" stroke="#111827" stroke-width="1.5" stroke-linecap="round" stroke-linejoin="round"/>
</g>
<path d="M32.608 19.496L33.392 18.488C34.096 19.272 35.248 20.008 36.752 20.008C38.656 20.008 39.264 18.984 39.264 18.168C39.264 16.888 37.968 16.536 36.56 16.152C34.848 15.704 32.944 15.224 32.944 13.128C32.944 11.368 34.512 10.168 36.608 10.168C38.24 10.168 39.504 10.712 40.4 11.656L39.6 12.632C38.8 11.752 37.68 11.352 36.512 11.352C35.232 11.352 34.32 12.04 34.32 13.048C34.32 14.12 35.552 14.44 36.912 14.808C38.656 15.272 40.64 15.816 40.64 18.056C40.64 19.608 39.584 21.192 36.704 21.192C34.848 21.192 33.488 20.488 32.608 19.496ZM43.775 23.944H42.575V13.272H43.775V14.424C44.335 13.64 45.295 13.08 46.383 13.08C48.415 13.08 49.823 14.616 49.823 17.128C49.823 19.624 48.415 21.192 46.383 21.192C45.327 21.192 44.399 20.696 43.775 19.832V23.944ZM48.559 17.128C48.559 15.416 47.631 14.152 46.079 14.152C45.135 14.152 44.191 14.712 43.775 15.384V18.872C44.191 19.544 45.135 20.12 46.079 20.12C47.631 20.12 48.559 18.84 48.559 17.128ZM55.1385 21.192C52.7865 21.192 51.3145 19.368 51.3145 17.128C51.3145 14.888 52.7865 13.08 55.1385 13.08C57.4905 13.08 58.9625 14.888 58.9625 17.128C58.9625 19.368 57.4905 21.192 55.1385 21.192ZM55.1385 20.12C56.7865 20.12 57.6985 18.712 57.6985 17.128C57.6985 15.56 56.7865 14.152 55.1385 14.152C53.4905 14.152 52.5625 15.56 52.5625 17.128C52.5625 18.712 53.4905 20.12 55.1385 20.12ZM60.9188 21V13.272H62.1188V14.52C62.7428 13.704 63.6388 13.112 64.6948 13.112V14.344C64.5508 14.312 64.4068 14.296 64.2148 14.296C63.4788 14.296 62.4708 14.904 62.1188 15.528V21H60.9188ZM68.152 21.192C67.016 21.192 66.44 20.536 66.44 19.384V14.328H65.16V13.272H66.44V11.16H67.64V13.272H69.208V14.328H67.64V19.128C67.64 19.704 67.896 20.12 68.424 20.12C68.76 20.12 69.08 19.976 69.24 19.8L69.592 20.696C69.288 20.984 68.856 21.192 68.152 21.192ZM70.2311 19.976L70.8551 19.112C71.3671 19.704 72.3431 20.216 73.3991 20.216C74.5831 20.216 75.2231 19.688 75.2231 18.936C75.2231 18.088 74.2791 17.816 73.2391 17.56C71.9271 17.256 70.4391 16.904 70.4391 15.304C70.4391 14.104 71.4791 13.08 73.3191 13.08C74.6311 13.08 75.5591 13.576 76.1831 14.2L75.6231 15.032C75.1591 14.472 74.3111 14.056 73.3191 14.056C72.2631 14.056 71.6071 14.536 71.6071 15.224C71.6071 15.976 72.4871 16.216 73.4951 16.456C74.8391 16.76 76.3911 17.144 76.3911 18.856C76.3911 20.152 75.3511 21.192 73.3511 21.192C72.0871 21.192 71.0151 20.808 70.2311 19.976ZM87.5216 21.192C84.4976 21.192 82.0816 18.952 82.0816 15.672C82.0816 12.392 84.4976 10.152 87.5216 10.152C89.4576 10.152 90.7696 11.064 91.6176 12.264L90.4976 12.888C89.8896 11.992 88.7856 11.336 87.5216 11.336C85.2336 11.336 83.4576 13.128 83.4576 15.672C83.4576 18.2 85.2336 20.008 87.5216 20.008C88.7856 20.008 89.8896 19.368 90.4976 18.456L91.6336 19.08C90.7376 20.296 89.4576 21.192 87.5216 21.192ZM96.6541 21.192C94.3021 21.192 92.8301 19.368 92.8301 17.128C92.8301 14.888 94.3021 13.08 96.6541 13.08C99.0061 13.08 100.478 14.888 100.478 17.128C100.478 19.368 99.0061 21.192 96.6541 21.192ZM96.6541 20.12C98.3021 20.12 99.2141 18.712 99.2141 17.128C99.2141 15.56 98.3021 14.152 96.6541 14.152C95.0061 14.152 94.0781 15.56 94.0781 17.128C94.0781 18.712 95.0061 20.12 96.6541 20.12ZM107.65 21V19.912C107.058 20.584 106.05 21.192 104.898 21.192C103.282 21.192 102.434 20.408 102.434 18.728V13.272H103.634V18.36C103.634 19.72 104.322 20.12 105.362 20.12C106.306 20.12 107.202 19.576 107.65 18.952V13.272H108.85V21H107.65ZM111.247 21V13.272H112.447V14.52C113.071 13.704 113.967 13.112 115.023 13.112V14.344C114.879 14.312 114.735 14.296 114.543 14.296C113.807 14.296 112.799 14.904 112.447 15.528V21H111.247ZM118.48 21.192C117.344 21.192 116.768 20.536 116.768 19.384V14.328H115.488V13.272H116.768V11.16H117.968V13.272H119.536V14.328H117.968V19.128C117.968 19.704 118.224 20.12 118.752 20.12C119.088 20.12 119.408 19.976 119.568 19.8L119.92 20.696C119.616 20.984 119.184 21.192 118.48 21.192Z" fill="#111827"/>
<defs>
<clipPath id="clip0_793_10962">
<rect width="16" height="16" fill="white" transform="translate(8 8)"/>
</clipPath>
</defs>
</svg>
